<svg xmlns="http://www.w3.org/2000/svg" xmlns:xlink="http://www.w3.org/1999/xlink" width="500" zoomAndPan="magnify" viewBox="0 0 375 374.999991" height="500" preserveAspectRatio="xMidYMid meet" version="1.0"><defs><g/></defs><path fill="#100f0d" d="M 334.359375 198.417969 C 334.527344 197.414062 361.25 49.347656 360.539062 48.554688 C 360.054688 47.96875 118.933594 47.175781 115.941406 49.515625 C 132.542969 54.28125 133.503906 70.066406 134.527344 76.003906 C 135.804688 83.175781 131.140625 81.042969 293.757812 81.042969 C 304.921875 81.042969 315.210938 89.71875 317.132812 100.84375 Z M 364.675781 45.125 C 367.980469 49.097656 368.042969 40.109375 334.320312 229.089844 L 311.886719 101.761719 C 310.339844 93.148438 302.414062 86.394531 293.757812 86.394531 L 140.402344 86.394531 C 135.261719 86.394531 130.179688 82.070312 129.261719 76.925781 L 127.921875 69.316406 C 126.5 61.246094 119.265625 54.660156 111.132812 54.011719 L 107.539062 53.738281 L 108.835938 50.4375 C 110.527344 45.984375 114.980469 42.824219 119.433594 42.824219 C 374.835938 42.824219 361.5 41.382812 364.675781 45.125 " fill-opacity="1" fill-rule="nonzero"/><path fill="#e8e8e7" d="M 360.539062 48.554688 C 361.25 49.347656 334.527344 197.414062 334.359375 198.417969 L 317.132812 100.84375 C 315.210938 89.71875 304.921875 81.042969 293.757812 81.042969 C 131.140625 81.042969 135.804688 83.175781 134.527344 76.003906 C 133.503906 70.066406 132.542969 54.28125 115.941406 49.515625 C 118.933594 47.175781 360.054688 47.96875 360.539062 48.554688 " fill-opacity="1" fill-rule="nonzero"/><path fill="#100f0d" d="M 323.65625 250.496094 C 324.847656 250.496094 325.371094 250.015625 325.121094 248.511719 L 299.632812 103.894531 C 298.359375 96.726562 303.0625 98.816406 140.402344 98.816406 C 129.21875 98.816406 118.933594 90.140625 117.007812 79.058594 C 116.046875 73.707031 115.796875 66.386719 109.796875 66.386719 C 108.082031 66.386719 38.019531 66.011719 36.410156 66.640625 L 36.097656 67.183594 C 35.722656 69.480469 53.21875 163.585938 53.910156 166.199219 C 82.554688 162.183594 91.0625 140.128906 103.316406 117.863281 C 115.253906 139.542969 125.851562 166.742188 160.035156 166.742188 C 168.230469 166.742188 172.519531 165.195312 185.792969 161.496094 C 198.378906 192.585938 204.359375 217.214844 196.601562 250.496094 Z M 330.410156 247.613281 C 330.785156 249.851562 330.304688 252.003906 329.007812 253.550781 C 325.808594 257.355469 330.785156 255.851562 189.765625 255.851562 C 197.1875 226.746094 197.25 205.003906 182.574219 167.914062 C 173.710938 170.421875 168.609375 172.09375 160.035156 172.09375 C 122.90625 172.09375 110.382812 141.675781 103.378906 129.003906 C 89.828125 154.367188 79.398438 169.042969 49.960938 172.03125 L 47.179688 161.601562 C 30.472656 67.078125 29.136719 66.972656 32.1875 63.503906 C 35.28125 59.699219 35.242188 61.035156 109.796875 61.035156 C 114.917969 61.035156 120.019531 65.40625 120.917969 70.546875 L 122.257812 78.160156 C 123.824219 86.710938 131.726562 93.464844 140.402344 93.464844 L 293.757812 93.464844 C 298.882812 93.464844 303.960938 97.855469 304.882812 102.996094 L 330.410156 247.613281 " fill-opacity="1" fill-rule="nonzero"/><path fill="#295be1" d="M 325.121094 248.511719 C 325.371094 250.015625 324.847656 250.496094 323.65625 250.496094 L 196.601562 250.496094 C 204.359375 217.214844 198.378906 192.585938 185.792969 161.496094 C 172.519531 165.195312 168.230469 166.742188 160.035156 166.742188 C 125.851562 166.742188 115.253906 139.542969 103.316406 117.863281 C 91.0625 140.128906 82.554688 162.183594 53.910156 166.199219 C 53.21875 163.585938 35.722656 69.480469 36.097656 67.183594 L 36.410156 66.640625 C 38.019531 66.011719 108.082031 66.386719 109.796875 66.386719 C 115.796875 66.386719 116.046875 73.707031 117.007812 79.058594 C 118.933594 90.140625 129.21875 98.816406 140.402344 98.816406 C 303.0625 98.816406 298.359375 96.726562 299.632812 103.894531 L 325.121094 248.511719 " fill-opacity="1" fill-rule="nonzero"/><path fill="#100f0d" d="M 103.316406 329.003906 C 165.515625 310.125 198.527344 242.199219 175.675781 181.941406 C 147.679688 188.632812 118.847656 176.96875 103.316406 152.757812 C 87.84375 176.96875 58.992188 188.632812 30.996094 181.941406 C 8.101562 242.300781 41.242188 310.125 103.316406 329.003906 Z M 178.894531 175.503906 C 206.511719 243.808594 169.402344 314.996094 103.316406 334.585938 C 37.226562 314.933594 0.179688 243.808594 27.796875 175.503906 C 57.652344 183.867188 85.648438 174.125 103.316406 142.011719 C 120.875 173.914062 148.539062 183.972656 178.894531 175.503906 " fill-opacity="1" fill-rule="nonzero"/><path fill="#295be1" d="M 152.925781 258.695312 L 152.925781 220.414062 L 122.695312 220.414062 L 122.695312 189.007812 L 83.933594 189.007812 L 83.933594 220.414062 L 53.742188 220.414062 L 53.742188 258.695312 L 83.933594 258.695312 L 83.933594 290.367188 L 122.695312 290.367188 L 122.695312 258.695312 Z M 175.675781 181.941406 C 198.527344 242.199219 165.515625 310.125 103.316406 329.003906 C 41.242188 310.125 8.101562 242.300781 30.996094 181.941406 C 58.992188 188.632812 87.84375 176.96875 103.316406 152.757812 C 118.847656 176.96875 147.679688 188.632812 175.675781 181.941406 " fill-opacity="1" fill-rule="nonzero"/><path fill="#100f0d" d="M 147.574219 253.339844 L 147.574219 225.765625 L 117.34375 225.765625 L 117.34375 194.363281 L 89.285156 194.363281 L 89.285156 225.765625 L 59.09375 225.765625 L 59.09375 253.339844 L 89.285156 253.339844 L 89.285156 285.015625 L 117.34375 285.015625 L 117.34375 253.339844 Z M 152.925781 220.414062 L 152.925781 258.695312 L 122.695312 258.695312 L 122.695312 290.367188 L 83.933594 290.367188 L 83.933594 258.695312 L 53.742188 258.695312 L 53.742188 220.414062 L 83.933594 220.414062 L 83.933594 189.007812 L 122.695312 189.007812 L 122.695312 220.414062 L 152.925781 220.414062 " fill-opacity="1" fill-rule="nonzero"/><path fill="#e8e8e7" d="M 147.574219 225.765625 L 147.574219 253.339844 L 117.34375 253.339844 L 117.34375 285.015625 L 89.285156 285.015625 L 89.285156 253.339844 L 59.09375 253.339844 L 59.09375 225.765625 L 89.285156 225.765625 L 89.285156 194.363281 L 117.34375 194.363281 L 117.34375 225.765625 L 147.574219 225.765625 " fill-opacity="1" fill-rule="nonzero"/><g fill="#295be1" fill-opacity="1"><g transform="translate(213.167628, 188.46058)"><g><path d="M 4.96875 0.28125 C 3.988281 0.28125 3.164062 0.125 2.5 -0.1875 C 1.832031 -0.5 1.320312 -0.921875 0.96875 -1.453125 C 0.625 -1.992188 0.453125 -2.613281 0.453125 -3.3125 L 2.8125 -3.3125 C 2.8125 -3.039062 2.882812 -2.785156 3.03125 -2.546875 C 3.1875 -2.304688 3.421875 -2.113281 3.734375 -1.96875 C 4.054688 -1.832031 4.46875 -1.765625 4.96875 -1.765625 C 5.425781 -1.765625 5.804688 -1.820312 6.109375 -1.9375 C 6.410156 -2.050781 6.640625 -2.210938 6.796875 -2.421875 C 6.960938 -2.640625 7.046875 -2.890625 7.046875 -3.171875 C 7.046875 -3.515625 6.894531 -3.785156 6.59375 -3.984375 C 6.300781 -4.191406 5.828125 -4.320312 5.171875 -4.375 L 4.34375 -4.453125 C 3.269531 -4.546875 2.410156 -4.878906 1.765625 -5.453125 C 1.128906 -6.035156 0.8125 -6.804688 0.8125 -7.765625 C 0.8125 -8.453125 0.976562 -9.046875 1.3125 -9.546875 C 1.644531 -10.054688 2.101562 -10.445312 2.6875 -10.71875 C 3.28125 -10.988281 3.984375 -11.125 4.796875 -11.125 C 5.640625 -11.125 6.363281 -10.976562 6.96875 -10.6875 C 7.582031 -10.394531 8.050781 -9.984375 8.375 -9.453125 C 8.695312 -8.929688 8.859375 -8.316406 8.859375 -7.609375 L 6.5 -7.609375 C 6.5 -7.867188 6.429688 -8.109375 6.296875 -8.328125 C 6.171875 -8.554688 5.984375 -8.738281 5.734375 -8.875 C 5.484375 -9.007812 5.171875 -9.078125 4.796875 -9.078125 C 4.441406 -9.078125 4.140625 -9.019531 3.890625 -8.90625 C 3.648438 -8.789062 3.472656 -8.628906 3.359375 -8.421875 C 3.242188 -8.222656 3.1875 -8.003906 3.1875 -7.765625 C 3.1875 -7.460938 3.289062 -7.195312 3.5 -6.96875 C 3.71875 -6.738281 4.078125 -6.601562 4.578125 -6.5625 L 5.40625 -6.5 C 6.1875 -6.425781 6.878906 -6.253906 7.484375 -5.984375 C 8.085938 -5.710938 8.554688 -5.34375 8.890625 -4.875 C 9.234375 -4.40625 9.40625 -3.835938 9.40625 -3.171875 C 9.40625 -2.472656 9.222656 -1.863281 8.859375 -1.34375 C 8.503906 -0.832031 7.992188 -0.429688 7.328125 -0.140625 C 6.671875 0.140625 5.882812 0.28125 4.96875 0.28125 Z M 4.96875 0.28125 "/></g></g></g><g fill="#295be1" fill-opacity="1"><g transform="translate(223.03507, 188.46058)"><g><path d="M 1.078125 0 L 1.078125 -10.796875 L 3.453125 -10.796875 L 3.453125 -4.578125 L 3.09375 -4.578125 C 3.09375 -5.390625 3.195312 -6.078125 3.40625 -6.640625 C 3.613281 -7.203125 3.914062 -7.628906 4.3125 -7.921875 C 4.71875 -8.210938 5.226562 -8.359375 5.84375 -8.359375 L 5.953125 -8.359375 C 6.847656 -8.359375 7.53125 -8.039062 8 -7.40625 C 8.476562 -6.769531 8.71875 -5.835938 8.71875 -4.609375 L 8.71875 0 L 6.34375 0 L 6.34375 -4.765625 C 6.34375 -5.210938 6.210938 -5.570312 5.953125 -5.84375 C 5.691406 -6.113281 5.347656 -6.25 4.921875 -6.25 C 4.484375 -6.25 4.128906 -6.101562 3.859375 -5.8125 C 3.585938 -5.53125 3.453125 -5.148438 3.453125 -4.671875 L 3.453125 0 Z M 1.078125 0 "/></g></g></g><g fill="#295be1" fill-opacity="1"><g transform="translate(232.680598, 188.46058)"><g><path d="M 5.984375 0 L 5.984375 -2.390625 L 5.578125 -2.390625 L 5.578125 -5 C 5.578125 -5.414062 5.476562 -5.726562 5.28125 -5.9375 C 5.082031 -6.144531 4.765625 -6.25 4.328125 -6.25 C 4.117188 -6.25 3.832031 -6.242188 3.46875 -6.234375 C 3.113281 -6.222656 2.75 -6.207031 2.375 -6.1875 C 2 -6.164062 1.660156 -6.144531 1.359375 -6.125 L 1.359375 -8.125 C 1.585938 -8.144531 1.851562 -8.164062 2.15625 -8.1875 C 2.46875 -8.207031 2.785156 -8.21875 3.109375 -8.21875 C 3.429688 -8.226562 3.738281 -8.234375 4.03125 -8.234375 C 4.851562 -8.234375 5.546875 -8.113281 6.109375 -7.875 C 6.679688 -7.644531 7.113281 -7.289062 7.40625 -6.8125 C 7.707031 -6.332031 7.859375 -5.71875 7.859375 -4.96875 L 7.859375 0 Z M 3.390625 0.203125 C 2.804688 0.203125 2.296875 0.0976562 1.859375 -0.109375 C 1.421875 -0.316406 1.078125 -0.613281 0.828125 -1 C 0.578125 -1.382812 0.453125 -1.847656 0.453125 -2.390625 C 0.453125 -2.984375 0.601562 -3.46875 0.90625 -3.84375 C 1.21875 -4.226562 1.648438 -4.507812 2.203125 -4.6875 C 2.753906 -4.875 3.390625 -4.96875 4.109375 -4.96875 L 5.84375 -4.96875 L 5.84375 -3.65625 L 4.09375 -3.65625 C 3.6875 -3.65625 3.367188 -3.550781 3.140625 -3.34375 C 2.921875 -3.144531 2.8125 -2.875 2.8125 -2.53125 C 2.8125 -2.207031 2.921875 -1.941406 3.140625 -1.734375 C 3.367188 -1.535156 3.6875 -1.4375 4.09375 -1.4375 C 4.363281 -1.4375 4.601562 -1.484375 4.8125 -1.578125 C 5.03125 -1.671875 5.207031 -1.828125 5.34375 -2.046875 C 5.476562 -2.273438 5.554688 -2.59375 5.578125 -3 L 6.140625 -2.40625 C 6.085938 -1.84375 5.953125 -1.367188 5.734375 -0.984375 C 5.515625 -0.609375 5.207031 -0.316406 4.8125 -0.109375 C 4.425781 0.0976562 3.953125 0.203125 3.390625 0.203125 Z M 3.390625 0.203125 "/></g></g></g><g fill="#295be1" fill-opacity="1"><g transform="translate(241.468094, 188.46058)"><g><path d="M 1.078125 0 L 1.078125 -8.109375 L 2.953125 -8.109375 L 2.953125 -4.625 L 2.921875 -4.625 C 2.921875 -5.769531 3.160156 -6.65625 3.640625 -7.28125 C 4.128906 -7.90625 4.835938 -8.21875 5.765625 -8.21875 L 6.078125 -8.21875 L 6.078125 -6.171875 L 5.484375 -6.171875 C 4.835938 -6.171875 4.335938 -5.992188 3.984375 -5.640625 C 3.628906 -5.296875 3.453125 -4.789062 3.453125 -4.125 L 3.453125 0 Z M 1.078125 0 "/></g></g></g><g fill="#295be1" fill-opacity="1"><g transform="translate(247.651869, 188.46058)"><g><path d="M 4.796875 0.28125 C 4.109375 0.28125 3.5 0.164062 2.96875 -0.0625 C 2.4375 -0.300781 1.992188 -0.617188 1.640625 -1.015625 C 1.296875 -1.421875 1.03125 -1.875 0.84375 -2.375 C 0.664062 -2.875 0.578125 -3.382812 0.578125 -3.90625 L 0.578125 -4.203125 C 0.578125 -4.742188 0.664062 -5.265625 0.84375 -5.765625 C 1.03125 -6.265625 1.296875 -6.707031 1.640625 -7.09375 C 1.984375 -7.488281 2.414062 -7.800781 2.9375 -8.03125 C 3.457031 -8.269531 4.046875 -8.390625 4.703125 -8.390625 C 5.566406 -8.390625 6.296875 -8.191406 6.890625 -7.796875 C 7.492188 -7.410156 7.953125 -6.90625 8.265625 -6.28125 C 8.585938 -5.65625 8.75 -4.972656 8.75 -4.234375 L 8.75 -3.4375 L 1.5625 -3.4375 L 1.5625 -4.78125 L 7.3125 -4.78125 L 6.546875 -4.15625 C 6.546875 -4.644531 6.472656 -5.0625 6.328125 -5.40625 C 6.191406 -5.75 5.988281 -6.007812 5.71875 -6.1875 C 5.445312 -6.375 5.109375 -6.46875 4.703125 -6.46875 C 4.285156 -6.46875 3.929688 -6.375 3.640625 -6.1875 C 3.359375 -6 3.144531 -5.722656 3 -5.359375 C 2.851562 -5.003906 2.78125 -4.566406 2.78125 -4.046875 C 2.78125 -3.554688 2.847656 -3.128906 2.984375 -2.765625 C 3.128906 -2.410156 3.347656 -2.132812 3.640625 -1.9375 C 3.929688 -1.738281 4.316406 -1.640625 4.796875 -1.640625 C 5.222656 -1.640625 5.578125 -1.722656 5.859375 -1.890625 C 6.140625 -2.054688 6.328125 -2.265625 6.421875 -2.515625 L 8.59375 -2.515625 C 8.476562 -1.972656 8.25 -1.488281 7.90625 -1.0625 C 7.5625 -0.632812 7.125 -0.300781 6.59375 -0.0625 C 6.070312 0.164062 5.472656 0.28125 4.796875 0.28125 Z M 4.796875 0.28125 "/></g></g></g><g fill="#295be1" fill-opacity="1"><g transform="translate(256.88318, 188.46058)"><g/></g></g><g fill="#295be1" fill-opacity="1"><g transform="translate(259.989874, 188.46058)"><g><path d="M 1.21875 0 L 1.21875 -10.796875 L 3.640625 -10.796875 L 3.640625 0 Z M 3.34375 -4.34375 L 3.34375 -6.359375 L 7.515625 -6.359375 L 7.515625 -4.34375 Z M 3.34375 -8.796875 L 3.34375 -10.796875 L 7.6875 -10.796875 L 7.6875 -8.796875 Z M 3.34375 -8.796875 "/></g></g></g><g fill="#295be1" fill-opacity="1"><g transform="translate(268.185589, 188.46058)"><g><path d="M 1.46875 0 L 1.46875 -8.109375 L 3.828125 -8.109375 L 3.828125 0 Z M 0.390625 -6.359375 L 0.390625 -8.109375 L 3.828125 -8.109375 L 3.828125 -6.359375 Z M 2.375 -8.90625 C 1.9375 -8.90625 1.609375 -9.019531 1.390625 -9.25 C 1.179688 -9.488281 1.078125 -9.785156 1.078125 -10.140625 C 1.078125 -10.503906 1.179688 -10.800781 1.390625 -11.03125 C 1.609375 -11.257812 1.9375 -11.375 2.375 -11.375 C 2.820312 -11.375 3.148438 -11.257812 3.359375 -11.03125 C 3.578125 -10.800781 3.6875 -10.503906 3.6875 -10.140625 C 3.6875 -9.785156 3.578125 -9.488281 3.359375 -9.25 C 3.148438 -9.019531 2.820312 -8.90625 2.375 -8.90625 Z M 2.375 -8.90625 "/></g></g></g><g fill="#295be1" fill-opacity="1"><g transform="translate(273.1267, 188.46058)"><g><path d="M 1.1875 0 L 1.1875 -10.796875 L 3.5625 -10.796875 L 3.5625 0 Z M 0.21875 -9.0625 L 0.21875 -10.796875 L 3.5625 -10.796875 L 3.5625 -9.0625 Z M 0.21875 -9.0625 "/></g></g></g><g fill="#295be1" fill-opacity="1"><g transform="translate(277.78674, 188.46058)"><g><path d="M 4.796875 0.28125 C 4.109375 0.28125 3.5 0.164062 2.96875 -0.0625 C 2.4375 -0.300781 1.992188 -0.617188 1.640625 -1.015625 C 1.296875 -1.421875 1.03125 -1.875 0.84375 -2.375 C 0.664062 -2.875 0.578125 -3.382812 0.578125 -3.90625 L 0.578125 -4.203125 C 0.578125 -4.742188 0.664062 -5.265625 0.84375 -5.765625 C 1.03125 -6.265625 1.296875 -6.707031 1.640625 -7.09375 C 1.984375 -7.488281 2.414062 -7.800781 2.9375 -8.03125 C 3.457031 -8.269531 4.046875 -8.390625 4.703125 -8.390625 C 5.566406 -8.390625 6.296875 -8.191406 6.890625 -7.796875 C 7.492188 -7.410156 7.953125 -6.90625 8.265625 -6.28125 C 8.585938 -5.65625 8.75 -4.972656 8.75 -4.234375 L 8.75 -3.4375 L 1.5625 -3.4375 L 1.5625 -4.78125 L 7.3125 -4.78125 L 6.546875 -4.15625 C 6.546875 -4.644531 6.472656 -5.0625 6.328125 -5.40625 C 6.191406 -5.75 5.988281 -6.007812 5.71875 -6.1875 C 5.445312 -6.375 5.109375 -6.46875 4.703125 -6.46875 C 4.285156 -6.46875 3.929688 -6.375 3.640625 -6.1875 C 3.359375 -6 3.144531 -5.722656 3 -5.359375 C 2.851562 -5.003906 2.78125 -4.566406 2.78125 -4.046875 C 2.78125 -3.554688 2.847656 -3.128906 2.984375 -2.765625 C 3.128906 -2.410156 3.347656 -2.132812 3.640625 -1.9375 C 3.929688 -1.738281 4.316406 -1.640625 4.796875 -1.640625 C 5.222656 -1.640625 5.578125 -1.722656 5.859375 -1.890625 C 6.140625 -2.054688 6.328125 -2.265625 6.421875 -2.515625 L 8.59375 -2.515625 C 8.476562 -1.972656 8.25 -1.488281 7.90625 -1.0625 C 7.5625 -0.632812 7.125 -0.300781 6.59375 -0.0625 C 6.070312 0.164062 5.472656 0.28125 4.796875 0.28125 Z M 4.796875 0.28125 "/></g></g></g><g fill="#295be1" fill-opacity="1"><g transform="translate(287.018051, 188.46058)"><g><path d="M 4.15625 0.25 C 3 0.25 2.09375 0.015625 1.4375 -0.453125 C 0.789062 -0.929688 0.453125 -1.597656 0.421875 -2.453125 L 2.515625 -2.453125 C 2.554688 -2.203125 2.710938 -1.972656 2.984375 -1.765625 C 3.253906 -1.566406 3.660156 -1.46875 4.203125 -1.46875 C 4.617188 -1.46875 4.960938 -1.535156 5.234375 -1.671875 C 5.503906 -1.816406 5.640625 -2.023438 5.640625 -2.296875 C 5.640625 -2.535156 5.535156 -2.722656 5.328125 -2.859375 C 5.117188 -3.003906 4.75 -3.109375 4.21875 -3.171875 L 3.578125 -3.21875 C 2.597656 -3.320312 1.863281 -3.59375 1.375 -4.03125 C 0.894531 -4.476562 0.65625 -5.046875 0.65625 -5.734375 C 0.65625 -6.304688 0.796875 -6.785156 1.078125 -7.171875 C 1.367188 -7.554688 1.765625 -7.847656 2.265625 -8.046875 C 2.773438 -8.242188 3.359375 -8.34375 4.015625 -8.34375 C 5.054688 -8.34375 5.894531 -8.113281 6.53125 -7.65625 C 7.175781 -7.195312 7.515625 -6.535156 7.546875 -5.671875 L 5.4375 -5.671875 C 5.40625 -5.929688 5.269531 -6.148438 5.03125 -6.328125 C 4.789062 -6.515625 4.441406 -6.609375 3.984375 -6.609375 C 3.617188 -6.609375 3.328125 -6.539062 3.109375 -6.40625 C 2.890625 -6.269531 2.78125 -6.082031 2.78125 -5.84375 C 2.78125 -5.613281 2.875 -5.441406 3.0625 -5.328125 C 3.25 -5.210938 3.554688 -5.128906 3.984375 -5.078125 L 4.609375 -5.015625 C 5.609375 -4.910156 6.382812 -4.632812 6.9375 -4.1875 C 7.488281 -3.738281 7.765625 -3.140625 7.765625 -2.390625 C 7.765625 -1.847656 7.613281 -1.378906 7.3125 -0.984375 C 7.019531 -0.585938 6.601562 -0.28125 6.0625 -0.0625 C 5.519531 0.144531 4.882812 0.25 4.15625 0.25 Z M 4.15625 0.25 "/></g></g></g><g fill="#295be1" fill-opacity="1"><g transform="translate(213.167628, 208.493973)"><g><path d="M 4.96875 0.28125 C 3.988281 0.28125 3.164062 0.125 2.5 -0.1875 C 1.832031 -0.5 1.320312 -0.921875 0.96875 -1.453125 C 0.625 -1.992188 0.453125 -2.613281 0.453125 -3.3125 L 2.8125 -3.3125 C 2.8125 -3.039062 2.882812 -2.785156 3.03125 -2.546875 C 3.1875 -2.304688 3.421875 -2.113281 3.734375 -1.96875 C 4.054688 -1.832031 4.46875 -1.765625 4.96875 -1.765625 C 5.425781 -1.765625 5.804688 -1.820312 6.109375 -1.9375 C 6.410156 -2.050781 6.640625 -2.210938 6.796875 -2.421875 C 6.960938 -2.640625 7.046875 -2.890625 7.046875 -3.171875 C 7.046875 -3.515625 6.894531 -3.785156 6.59375 -3.984375 C 6.300781 -4.191406 5.828125 -4.320312 5.171875 -4.375 L 4.34375 -4.453125 C 3.269531 -4.546875 2.410156 -4.878906 1.765625 -5.453125 C 1.128906 -6.035156 0.8125 -6.804688 0.8125 -7.765625 C 0.8125 -8.453125 0.976562 -9.046875 1.3125 -9.546875 C 1.644531 -10.054688 2.101562 -10.445312 2.6875 -10.71875 C 3.28125 -10.988281 3.984375 -11.125 4.796875 -11.125 C 5.640625 -11.125 6.363281 -10.976562 6.96875 -10.6875 C 7.582031 -10.394531 8.050781 -9.984375 8.375 -9.453125 C 8.695312 -8.929688 8.859375 -8.316406 8.859375 -7.609375 L 6.5 -7.609375 C 6.5 -7.867188 6.429688 -8.109375 6.296875 -8.328125 C 6.171875 -8.554688 5.984375 -8.738281 5.734375 -8.875 C 5.484375 -9.007812 5.171875 -9.078125 4.796875 -9.078125 C 4.441406 -9.078125 4.140625 -9.019531 3.890625 -8.90625 C 3.648438 -8.789062 3.472656 -8.628906 3.359375 -8.421875 C 3.242188 -8.222656 3.1875 -8.003906 3.1875 -7.765625 C 3.1875 -7.460938 3.289062 -7.195312 3.5 -6.96875 C 3.71875 -6.738281 4.078125 -6.601562 4.578125 -6.5625 L 5.40625 -6.5 C 6.1875 -6.425781 6.878906 -6.253906 7.484375 -5.984375 C 8.085938 -5.710938 8.554688 -5.34375 8.890625 -4.875 C 9.234375 -4.40625 9.40625 -3.835938 9.40625 -3.171875 C 9.40625 -2.472656 9.222656 -1.863281 8.859375 -1.34375 C 8.503906 -0.832031 7.992188 -0.429688 7.328125 -0.140625 C 6.671875 0.140625 5.882812 0.28125 4.96875 0.28125 Z M 4.96875 0.28125 "/></g></g></g><g fill="#295be1" fill-opacity="1"><g transform="translate(223.03507, 208.493973)"><g><path d="M 4.796875 0.28125 C 4.109375 0.28125 3.5 0.164062 2.96875 -0.0625 C 2.4375 -0.300781 1.992188 -0.617188 1.640625 -1.015625 C 1.296875 -1.421875 1.03125 -1.875 0.84375 -2.375 C 0.664062 -2.875 0.578125 -3.382812 0.578125 -3.90625 L 0.578125 -4.203125 C 0.578125 -4.742188 0.664062 -5.265625 0.84375 -5.765625 C 1.03125 -6.265625 1.296875 -6.707031 1.640625 -7.09375 C 1.984375 -7.488281 2.414062 -7.800781 2.9375 -8.03125 C 3.457031 -8.269531 4.046875 -8.390625 4.703125 -8.390625 C 5.566406 -8.390625 6.296875 -8.191406 6.890625 -7.796875 C 7.492188 -7.410156 7.953125 -6.90625 8.265625 -6.28125 C 8.585938 -5.65625 8.75 -4.972656 8.75 -4.234375 L 8.75 -3.4375 L 1.5625 -3.4375 L 1.5625 -4.78125 L 7.3125 -4.78125 L 6.546875 -4.15625 C 6.546875 -4.644531 6.472656 -5.0625 6.328125 -5.40625 C 6.191406 -5.75 5.988281 -6.007812 5.71875 -6.1875 C 5.445312 -6.375 5.109375 -6.46875 4.703125 -6.46875 C 4.285156 -6.46875 3.929688 -6.375 3.640625 -6.1875 C 3.359375 -6 3.144531 -5.722656 3 -5.359375 C 2.851562 -5.003906 2.78125 -4.566406 2.78125 -4.046875 C 2.78125 -3.554688 2.847656 -3.128906 2.984375 -2.765625 C 3.128906 -2.410156 3.347656 -2.132812 3.640625 -1.9375 C 3.929688 -1.738281 4.316406 -1.640625 4.796875 -1.640625 C 5.222656 -1.640625 5.578125 -1.722656 5.859375 -1.890625 C 6.140625 -2.054688 6.328125 -2.265625 6.421875 -2.515625 L 8.59375 -2.515625 C 8.476562 -1.972656 8.25 -1.488281 7.90625 -1.0625 C 7.5625 -0.632812 7.125 -0.300781 6.59375 -0.0625 C 6.070312 0.164062 5.472656 0.28125 4.796875 0.28125 Z M 4.796875 0.28125 "/></g></g></g><g fill="#295be1" fill-opacity="1"><g transform="translate(232.266382, 208.493973)"><g><path d="M 4.71875 0.28125 C 4.019531 0.28125 3.410156 0.164062 2.890625 -0.0625 C 2.367188 -0.300781 1.9375 -0.613281 1.59375 -1 C 1.25 -1.394531 0.992188 -1.84375 0.828125 -2.34375 C 0.660156 -2.84375 0.578125 -3.359375 0.578125 -3.890625 L 0.578125 -4.171875 C 0.578125 -4.722656 0.664062 -5.253906 0.84375 -5.765625 C 1.019531 -6.273438 1.28125 -6.722656 1.625 -7.109375 C 1.96875 -7.503906 2.398438 -7.816406 2.921875 -8.046875 C 3.441406 -8.273438 4.035156 -8.390625 4.703125 -8.390625 C 5.429688 -8.390625 6.078125 -8.25 6.640625 -7.96875 C 7.203125 -7.6875 7.648438 -7.289062 7.984375 -6.78125 C 8.328125 -6.28125 8.515625 -5.707031 8.546875 -5.0625 L 6.234375 -5.0625 C 6.191406 -5.425781 6.046875 -5.734375 5.796875 -5.984375 C 5.546875 -6.234375 5.179688 -6.359375 4.703125 -6.359375 C 4.304688 -6.359375 3.976562 -6.257812 3.71875 -6.0625 C 3.457031 -5.863281 3.257812 -5.59375 3.125 -5.25 C 3 -4.90625 2.9375 -4.5 2.9375 -4.03125 C 2.9375 -3.59375 2.992188 -3.195312 3.109375 -2.84375 C 3.234375 -2.5 3.425781 -2.226562 3.6875 -2.03125 C 3.945312 -1.84375 4.289062 -1.75 4.71875 -1.75 C 5.03125 -1.75 5.296875 -1.804688 5.515625 -1.921875 C 5.742188 -2.035156 5.925781 -2.191406 6.0625 -2.390625 C 6.195312 -2.585938 6.273438 -2.820312 6.296875 -3.09375 L 8.609375 -3.09375 C 8.578125 -2.425781 8.390625 -1.835938 8.046875 -1.328125 C 7.703125 -0.816406 7.242188 -0.421875 6.671875 -0.140625 C 6.097656 0.140625 5.445312 0.28125 4.71875 0.28125 Z M 4.71875 0.28125 "/></g></g></g><g fill="#295be1" fill-opacity="1"><g transform="translate(241.305364, 208.493973)"><g><path d="M 3.8125 0.25 C 2.875 0.25 2.15625 -0.0507812 1.65625 -0.65625 C 1.15625 -1.257812 0.90625 -2.175781 0.90625 -3.40625 L 0.90625 -8.109375 L 3.265625 -8.109375 L 3.265625 -3.28125 C 3.265625 -2.851562 3.390625 -2.507812 3.640625 -2.25 C 3.890625 -1.988281 4.21875 -1.859375 4.625 -1.859375 C 5.050781 -1.859375 5.394531 -1.988281 5.65625 -2.25 C 5.925781 -2.519531 6.0625 -2.882812 6.0625 -3.34375 L 6.0625 -8.109375 L 8.4375 -8.109375 L 8.4375 0 L 6.5625 0 L 6.5625 -3.421875 L 6.71875 -3.421875 C 6.71875 -2.597656 6.609375 -1.910156 6.390625 -1.359375 C 6.179688 -0.816406 5.867188 -0.410156 5.453125 -0.140625 C 5.046875 0.117188 4.535156 0.25 3.921875 0.25 Z M 3.8125 0.25 "/></g></g></g><g fill="#295be1" fill-opacity="1"><g transform="translate(250.847331, 208.493973)"><g><path d="M 1.078125 0 L 1.078125 -8.109375 L 2.953125 -8.109375 L 2.953125 -4.625 L 2.921875 -4.625 C 2.921875 -5.769531 3.160156 -6.65625 3.640625 -7.28125 C 4.128906 -7.90625 4.835938 -8.21875 5.765625 -8.21875 L 6.078125 -8.21875 L 6.078125 -6.171875 L 5.484375 -6.171875 C 4.835938 -6.171875 4.335938 -5.992188 3.984375 -5.640625 C 3.628906 -5.296875 3.453125 -4.789062 3.453125 -4.125 L 3.453125 0 Z M 1.078125 0 "/></g></g></g><g fill="#295be1" fill-opacity="1"><g transform="translate(257.031105, 208.493973)"><g><path d="M 4.796875 0.28125 C 4.109375 0.28125 3.5 0.164062 2.96875 -0.0625 C 2.4375 -0.300781 1.992188 -0.617188 1.640625 -1.015625 C 1.296875 -1.421875 1.03125 -1.875 0.84375 -2.375 C 0.664062 -2.875 0.578125 -3.382812 0.578125 -3.90625 L 0.578125 -4.203125 C 0.578125 -4.742188 0.664062 -5.265625 0.84375 -5.765625 C 1.03125 -6.265625 1.296875 -6.707031 1.640625 -7.09375 C 1.984375 -7.488281 2.414062 -7.800781 2.9375 -8.03125 C 3.457031 -8.269531 4.046875 -8.390625 4.703125 -8.390625 C 5.566406 -8.390625 6.296875 -8.191406 6.890625 -7.796875 C 7.492188 -7.410156 7.953125 -6.90625 8.265625 -6.28125 C 8.585938 -5.65625 8.75 -4.972656 8.75 -4.234375 L 8.75 -3.4375 L 1.5625 -3.4375 L 1.5625 -4.78125 L 7.3125 -4.78125 L 6.546875 -4.15625 C 6.546875 -4.644531 6.472656 -5.0625 6.328125 -5.40625 C 6.191406 -5.75 5.988281 -6.007812 5.71875 -6.1875 C 5.445312 -6.375 5.109375 -6.46875 4.703125 -6.46875 C 4.285156 -6.46875 3.929688 -6.375 3.640625 -6.1875 C 3.359375 -6 3.144531 -5.722656 3 -5.359375 C 2.851562 -5.003906 2.78125 -4.566406 2.78125 -4.046875 C 2.78125 -3.554688 2.847656 -3.128906 2.984375 -2.765625 C 3.128906 -2.410156 3.347656 -2.132812 3.640625 -1.9375 C 3.929688 -1.738281 4.316406 -1.640625 4.796875 -1.640625 C 5.222656 -1.640625 5.578125 -1.722656 5.859375 -1.890625 C 6.140625 -2.054688 6.328125 -2.265625 6.421875 -2.515625 L 8.59375 -2.515625 C 8.476562 -1.972656 8.25 -1.488281 7.90625 -1.0625 C 7.5625 -0.632812 7.125 -0.300781 6.59375 -0.0625 C 6.070312 0.164062 5.472656 0.28125 4.796875 0.28125 Z M 4.796875 0.28125 "/></g></g></g><g fill="#295be1" fill-opacity="1"><g transform="translate(266.262417, 208.493973)"><g><path d="M 1.1875 0 L 1.1875 -10.796875 L 3.5625 -10.796875 L 3.5625 0 Z M 0.21875 -9.0625 L 0.21875 -10.796875 L 3.5625 -10.796875 L 3.5625 -9.0625 Z M 0.21875 -9.0625 "/></g></g></g><g fill="#295be1" fill-opacity="1"><g transform="translate(270.922456, 208.493973)"><g><path d="M 0.984375 3.21875 L 0.984375 1.203125 L 2.671875 1.203125 C 2.929688 1.203125 3.148438 1.164062 3.328125 1.09375 C 3.503906 1.03125 3.644531 0.925781 3.75 0.78125 C 3.863281 0.632812 3.957031 0.429688 4.03125 0.171875 L 6.015625 -8.109375 L 8.265625 -8.109375 L 6 0.65625 C 5.84375 1.28125 5.625 1.78125 5.34375 2.15625 C 5.0625 2.53125 4.6875 2.800781 4.21875 2.96875 C 3.75 3.132812 3.15625 3.21875 2.4375 3.21875 Z M 3.53125 -0.171875 L 3.53125 -2.03125 L 5.25 -2.03125 L 5.25 -0.171875 Z M 2.5625 -0.171875 L 0.078125 -8.109375 L 2.453125 -8.109375 L 4.8125 -0.171875 Z M 2.5625 -0.171875 "/></g></g></g></svg>